<svg viewBox="0 0 155 14" fill="none" xmlns="http://www.w3.org/2000/svg">
<path d="M1.07422 14C0.911458 14 0.771484 13.9447 0.654297 13.834C0.54362 13.7168 0.488281 13.5768 0.488281 13.4141V11.9297C0.488281 11.9232 0.491536 11.9134 0.498047 11.9004L7.7832 2.50586C7.9069 2.35612 8.0599 2.28125 8.24219 2.28125C8.42448 2.27474 8.57747 2.34635 8.70117 2.49609L16.0547 11.9004C16.0612 11.9134 16.0645 11.9232 16.0645 11.9297V13.4141C16.0645 13.5768 16.0091 13.7168 15.8984 13.834C15.7878 13.9447 15.651 14 15.4883 14H12.5684C12.5228 14 12.487 13.9837 12.4609 13.9512L8.28125 8.6875C8.26823 8.68099 8.25521 8.67773 8.24219 8.67773C8.22917 8.67773 8.21615 8.68099 8.20312 8.6875L4.10156 13.9512C4.06901 13.9837 4.0332 14 3.99414 14H1.07422ZM15.9863 10.6699L11.8848 5.35742C11.8783 5.35091 11.875 5.34115 11.875 5.32812V0.611328C11.875 0.448568 11.9303 0.311849 12.041 0.201172C12.1582 0.0839844 12.2982 0.0253906 12.4609 0.0253906H15.4883C15.651 0.0253906 15.7878 0.0839844 15.8984 0.201172C16.0091 0.311849 16.0645 0.448568 16.0645 0.611328V10.6406C16.0645 10.6602 16.0547 10.6732 16.0352 10.6797C16.0156 10.6862 15.9993 10.6829 15.9863 10.6699ZM0.576172 10.6699C0.556641 10.6829 0.537109 10.6862 0.517578 10.6797C0.498047 10.6732 0.488281 10.6602 0.488281 10.6406V0.611328C0.488281 0.448568 0.54362 0.311849 0.654297 0.201172C0.771484 0.0839844 0.911458 0.0253906 1.07422 0.0253906H4.10156C4.25781 0.0253906 4.39128 0.0839844 4.50195 0.201172C4.61914 0.311849 4.67773 0.448568 4.67773 0.611328V5.32812C4.67773 5.34115 4.67448 5.35091 4.66797 5.35742L0.576172 10.6699ZM50.4688 14C50.306 14 50.166 13.9447 50.0488 13.834C49.9382 13.7168 49.8828 13.5768 49.8828 13.4141V11.9297C49.8828 11.9232 49.8861 11.9134 49.8926 11.9004L57.1777 2.50586C57.3014 2.35612 57.4544 2.28125 57.6367 2.28125C57.819 2.27474 57.972 2.34635 58.0957 2.49609L65.4492 11.9004C65.4557 11.9134 65.459 11.9232 65.459 11.9297V13.4141C65.459 13.5768 65.4036 13.7168 65.293 13.834C65.1823 13.9447 65.0456 14 64.8828 14H61.9629C61.9173 14 61.8815 13.9837 61.8555 13.9512L57.6758 8.6875C57.6628 8.68099 57.6497 8.67773 57.6367 8.67773C57.6237 8.67773 57.6107 8.68099 57.5977 8.6875L53.4961 13.9512C53.4635 13.9837 53.4277 14 53.3887 14H50.4688ZM65.3809 10.6699L61.2793 5.35742C61.2728 5.35091 61.2695 5.34115 61.2695 5.32812V0.611328C61.2695 0.448568 61.3249 0.311849 61.4355 0.201172C61.5527 0.0839844 61.6927 0.0253906 61.8555 0.0253906H64.8828C65.0456 0.0253906 65.1823 0.0839844 65.293 0.201172C65.4036 0.311849 65.459 0.448568 65.459 0.611328V10.6406C65.459 10.6602 65.4492 10.6732 65.4297 10.6797C65.4102 10.6862 65.3939 10.6829 65.3809 10.6699ZM49.9707 10.6699C49.9512 10.6829 49.9316 10.6862 49.9121 10.6797C49.8926 10.6732 49.8828 10.6602 49.8828 10.6406V0.611328C49.8828 0.448568 49.9382 0.311849 50.0488 0.201172C50.166 0.0839844 50.306 0.0253906 50.4688 0.0253906H53.4961C53.6523 0.0253906 53.7858 0.0839844 53.8965 0.201172C54.0137 0.311849 54.0723 0.448568 54.0723 0.611328V5.32812C54.0723 5.34115 54.069 5.35091 54.0625 5.35742L49.9707 10.6699Z" fill="#30AF5B"/>
<path d="M17.6367 14C17.474 14 17.334 13.9447 17.2168 13.834C17.1061 13.7168 17.0508 13.5768 17.0508 13.4141V4.43945C17.0508 4.27669 17.1061 4.13997 17.2168 4.0293C17.334 3.91211 17.474 3.85352 17.6367 3.85352H20.6641C20.8203 3.85352 20.9538 3.91211 21.0645 4.0293C21.1816 4.13997 21.2402 4.27669 21.2402 4.43945V13.4141C21.2402 13.5768 21.1816 13.7168 21.0645 13.834C20.9538 13.9447 20.8203 14 20.6641 14H17.6367ZM17.6367 3.18945C17.474 3.18945 17.334 3.13411 17.2168 3.02344C17.1061 2.91276 17.0508 2.77604 17.0508 2.61328V0.601562C17.0508 0.438802 17.1061 0.302083 17.2168 0.191406C17.334 0.0742188 17.474 0.015625 17.6367 0.015625H20.6641C20.8203 0.015625 20.9538 0.0742188 21.0645 0.191406C21.1816 0.302083 21.2402 0.438802 21.2402 0.601562V2.61328C21.2402 2.77604 21.1816 2.91276 21.0645 3.02344C20.9538 3.13411 20.8203 3.18945 20.6641 3.18945H17.6367ZM31.1914 9.81055C31.3542 9.81055 31.4909 9.86914 31.6016 9.98633C31.7188 10.097 31.7773 10.2305 31.7773 10.3867V13.4141C31.7773 13.5768 31.7188 13.7168 31.6016 13.834C31.4909 13.9447 31.3542 14 31.1914 14H22.8125C22.6497 14 22.5098 13.9447 22.3926 13.834C22.2819 13.7168 22.2266 13.5768 22.2266 13.4141V0.611328C22.2266 0.448568 22.2819 0.311849 22.3926 0.201172C22.5098 0.0839844 22.6497 0.0253906 22.8125 0.0253906H25.8398C25.9961 0.0253906 26.1296 0.0839844 26.2402 0.201172C26.3574 0.311849 26.416 0.448568 26.416 0.611328V9.76172C26.416 9.77474 26.4193 9.78776 26.4258 9.80078C26.4388 9.80729 26.4518 9.81055 26.4648 9.81055H31.1914ZM36.8555 0.0253906C36.8815 0.0253906 36.901 0.0351562 36.9141 0.0546875C36.9336 0.0742188 36.9434 0.0970052 36.9434 0.123047V4.21484V9.81055V13.9023C36.9434 13.9284 36.9336 13.9512 36.9141 13.9707C36.901 13.9902 36.8815 14 36.8555 14H33.3398C33.1771 14 33.0371 13.9447 32.9199 13.834C32.8092 13.7168 32.7539 13.5768 32.7539 13.4141V0.611328C32.7539 0.448568 32.8092 0.311849 32.9199 0.201172C33.0371 0.0839844 33.1771 0.0253906 33.3398 0.0253906H36.8555ZM39.043 9.81055C39.2383 9.81055 39.401 9.74219 39.5312 9.60547C39.668 9.46875 39.7363 9.30273 39.7363 9.10742V4.91797C39.7363 4.72266 39.668 4.55664 39.5312 4.41992C39.401 4.2832 39.2383 4.21484 39.043 4.21484H37.7344C37.7083 4.21484 37.6855 4.20833 37.666 4.19531C37.653 4.17578 37.6465 4.15299 37.6465 4.12695V0.123047C37.6465 0.0970052 37.653 0.0742188 37.666 0.0546875C37.6855 0.0351562 37.7083 0.0253906 37.7344 0.0253906H39.043C39.9414 0.0253906 40.7617 0.246745 41.5039 0.689453C42.2461 1.12565 42.8353 1.71484 43.2715 2.45703C43.7142 3.19922 43.9355 4.01953 43.9355 4.91797V9.10742C43.9355 10.0059 43.7142 10.8262 43.2715 11.5684C42.8353 12.3105 42.2461 12.903 41.5039 13.3457C40.7617 13.7819 39.9414 14 39.043 14H37.7344C37.7083 14 37.6855 13.9902 37.666 13.9707C37.653 13.9512 37.6465 13.9284 37.6465 13.9023V9.89844C37.6465 9.8724 37.653 9.85286 37.666 9.83984C37.6855 9.82031 37.7083 9.81055 37.7344 9.81055H39.043ZM67.0312 14C66.8685 14 66.7285 13.9447 66.6113 13.834C66.5007 13.7168 66.4453 13.5768 66.4453 13.4141V0.611328C66.4453 0.448568 66.5007 0.311849 66.6113 0.201172C66.7285 0.0839844 66.8685 0.0253906 67.0312 0.0253906H70.0586C70.2148 0.0253906 70.3483 0.0839844 70.459 0.201172C70.5762 0.311849 70.6348 0.448568 70.6348 0.611328V4.91797V9.10742V13.4141C70.6348 13.5768 70.5762 13.7168 70.459 13.834C70.3483 13.9447 70.2148 14 70.0586 14H67.0312ZM71.3867 9.10742C71.3737 9.10742 71.3607 9.10417 71.3477 9.09766C71.3411 9.08464 71.3379 9.07161 71.3379 9.05859V4.9668C71.3379 4.95378 71.3411 4.94401 71.3477 4.9375C71.3607 4.92448 71.3737 4.91797 71.3867 4.91797H73.6621V0.611328C73.6621 0.448568 73.7174 0.311849 73.8281 0.201172C73.9453 0.0839844 74.0853 0.0253906 74.248 0.0253906H77.2754C77.4382 0.0253906 77.5749 0.0839844 77.6855 0.201172C77.8027 0.311849 77.8613 0.448568 77.8613 0.611328V13.4141C77.8613 13.5768 77.8027 13.7168 77.6855 13.834C77.5749 13.9447 77.4382 14 77.2754 14H74.248C74.0853 14 73.9453 13.9447 73.8281 13.834C73.7174 13.7168 73.6621 13.5768 73.6621 13.4141V9.10742H71.3867ZM79.4336 14C79.2708 14 79.1309 13.9447 79.0137 13.834C78.903 13.7168 78.8477 13.5768 78.8477 13.4141V4.43945C78.8477 4.27669 78.903 4.13997 79.0137 4.0293C79.1309 3.91211 79.2708 3.85352 79.4336 3.85352H82.4609C82.6172 3.85352 82.7507 3.91211 82.8613 4.0293C82.9785 4.13997 83.0371 4.27669 83.0371 4.43945V13.4141C83.0371 13.5768 82.9785 13.7168 82.8613 13.834C82.7507 13.9447 82.6172 14 82.4609 14H79.4336ZM79.4336 3.18945C79.2708 3.18945 79.1309 3.13411 79.0137 3.02344C78.903 2.91276 78.8477 2.77604 78.8477 2.61328V0.601562C78.8477 0.438802 78.903 0.302083 79.0137 0.191406C79.1309 0.0742188 79.2708 0.015625 79.4336 0.015625H82.4609C82.6172 0.015625 82.7507 0.0742188 82.8613 0.191406C82.9785 0.302083 83.0371 0.438802 83.0371 0.601562V2.61328C83.0371 2.77604 82.9785 2.91276 82.8613 3.02344C82.7507 3.13411 82.6172 3.18945 82.4609 3.18945H79.4336ZM94.7363 13.4141C94.7363 13.5768 94.6777 13.7168 94.5605 13.834C94.4499 13.9447 94.3132 14 94.1504 14H84.6094C84.4466 14 84.3066 13.9447 84.1895 13.834C84.0788 13.7168 84.0234 13.5768 84.0234 13.4141V10.3867C84.0234 10.2305 84.0788 10.097 84.1895 9.98633C84.3066 9.86914 84.4466 9.81055 84.6094 9.81055H90.4492C90.4753 9.81055 90.498 9.80078 90.5176 9.78125C90.5371 9.76172 90.5469 9.73893 90.5469 9.71289V9.20508C90.5469 9.17904 90.5371 9.15625 90.5176 9.13672C90.498 9.11719 90.4753 9.10742 90.4492 9.10742H84.6094C84.4466 9.10742 84.3066 9.05208 84.1895 8.94141C84.0788 8.82422 84.0234 8.6875 84.0234 8.53125V0.611328C84.0234 0.448568 84.0788 0.311849 84.1895 0.201172C84.3066 0.0839844 84.4466 0.0253906 84.6094 0.0253906H94.1504C94.3132 0.0253906 94.4499 0.0839844 94.5605 0.201172C94.6777 0.311849 94.7363 0.448568 94.7363 0.611328V3.63867C94.7363 3.79492 94.6777 3.93164 94.5605 4.04883C94.4499 4.15951 94.3132 4.21484 94.1504 4.21484H88.3105C88.2845 4.21484 88.2617 4.22461 88.2422 4.24414C88.2227 4.26367 88.2129 4.28646 88.2129 4.3125V4.82031C88.2129 4.84635 88.2227 4.86914 88.2422 4.88867C88.2617 4.9082 88.2845 4.91797 88.3105 4.91797H94.1504C94.3132 4.91797 94.4499 4.97656 94.5605 5.09375C94.6777 5.20443 94.7363 5.34115 94.7363 5.50391V13.4141ZM100.703 10.9727C100.677 10.9727 100.654 10.9629 100.635 10.9434C100.622 10.9238 100.615 10.901 100.615 10.875V6.87109C100.615 6.84505 100.622 6.82552 100.635 6.8125C100.654 6.79297 100.677 6.7832 100.703 6.7832H101.191C101.549 6.7832 101.852 6.65951 102.1 6.41211C102.347 6.1582 102.474 5.84896 102.48 5.48438C102.461 5.11979 102.324 4.81706 102.07 4.57617C101.823 4.33529 101.523 4.21484 101.172 4.21484H100.703C100.677 4.21484 100.654 4.20833 100.635 4.19531C100.622 4.17578 100.615 4.15299 100.615 4.12695V0.123047C100.615 0.0970052 100.622 0.0742188 100.635 0.0546875C100.654 0.0351562 100.677 0.0253906 100.703 0.0253906H101.191C102.656 0.0253906 103.949 0.559245 105.068 1.62695C106.136 2.74674 106.67 4.03906 106.67 5.50391C106.67 6.96224 106.136 8.2513 105.068 9.37109C103.949 10.4388 102.656 10.9727 101.191 10.9727H100.703ZM99.9121 11.9004V13.4141C99.9121 13.5768 99.8535 13.7168 99.7363 13.834C99.6257 13.9447 99.4922 14 99.3359 14H96.3086C96.1458 14 96.0059 13.9447 95.8887 13.834C95.778 13.7168 95.7227 13.5768 95.7227 13.4141V0.611328C95.7227 0.448568 95.778 0.311849 95.8887 0.201172C96.0059 0.0839844 96.1458 0.0253906 96.3086 0.0253906H99.8242C99.8503 0.0253906 99.8698 0.0351562 99.8828 0.0546875C99.9023 0.0742188 99.9121 0.0970052 99.9121 0.123047V4.21484V6.7832V10.9727V11.9004ZM108.242 14C108.079 14 107.939 13.9447 107.822 13.834C107.712 13.7168 107.656 13.5768 107.656 13.4141V10.3867C107.656 10.2305 107.712 10.097 107.822 9.98633C107.939 9.86914 108.079 9.81055 108.242 9.81055H117.422C117.585 9.81055 117.721 9.86914 117.832 9.98633C117.949 10.097 118.008 10.2305 118.008 10.3867V13.4141C118.008 13.5768 117.949 13.7168 117.832 13.834C117.721 13.9447 117.585 14 117.422 14H108.242ZM108.242 4.19531C108.079 4.19531 107.939 4.13997 107.822 4.0293C107.712 3.91211 107.656 3.77214 107.656 3.60938V0.582031C107.656 0.425781 107.712 0.292318 107.822 0.181641C107.939 0.0644531 108.079 0.00585938 108.242 0.00585938H117.422C117.585 0.00585938 117.721 0.0644531 117.832 0.181641C117.949 0.292318 118.008 0.425781 118.008 0.582031V3.60938C118.008 3.77214 117.949 3.91211 117.832 4.0293C117.721 4.13997 117.585 4.19531 117.422 4.19531H108.242ZM108.242 9.10742C108.079 9.10742 107.939 9.05208 107.822 8.94141C107.712 8.82422 107.656 8.6875 107.656 8.53125V5.50391C107.656 5.34115 107.712 5.20443 107.822 5.09375C107.939 4.97656 108.079 4.91797 108.242 4.91797H117.422C117.585 4.91797 117.721 4.97656 117.832 5.09375C117.949 5.20443 118.008 5.34115 118.008 5.50391V8.53125C118.008 8.6875 117.949 8.82422 117.832 8.94141C117.721 9.05208 117.585 9.10742 117.422 9.10742H108.242ZM123.174 13.4141C123.174 13.5768 123.115 13.7168 122.998 13.834C122.887 13.9447 122.751 14 122.588 14H119.57C119.408 14 119.268 13.9447 119.15 13.834C119.04 13.7168 118.984 13.5768 118.984 13.4141V0.611328C118.984 0.448568 119.04 0.311849 119.15 0.201172C119.268 0.0839844 119.408 0.0253906 119.57 0.0253906H125.273C126.641 0.0253906 127.848 0.526693 128.896 1.5293C129.867 2.51888 130.368 3.70703 130.4 5.09375C130.394 6.49349 129.909 7.70443 128.945 8.72656C128.548 9.13021 128.109 9.45573 127.627 9.70312C127.62 9.70964 127.614 9.71615 127.607 9.72266C127.607 9.72917 127.611 9.73568 127.617 9.74219L129.805 13.1016C129.928 13.3099 129.935 13.5117 129.824 13.707C129.72 13.9023 129.551 14 129.316 14H126.357C126.162 14 125.999 13.9121 125.869 13.7363L123.877 10.6895C123.877 10.6829 123.877 10.6732 123.877 10.6602V6.12891C123.877 6.11589 123.88 6.10612 123.887 6.09961C123.893 6.08659 123.903 6.08008 123.916 6.08008H125.273C125.534 6.08008 125.752 5.98893 125.928 5.80664C126.11 5.62435 126.201 5.39648 126.201 5.12305C126.188 4.86263 126.09 4.64779 125.908 4.47852C125.726 4.30273 125.508 4.21484 125.254 4.21484H123.174V5.15234V13.4141ZM131.973 14C131.81 14 131.67 13.9447 131.553 13.834C131.442 13.7168 131.387 13.5768 131.387 13.4141V10.3867C131.387 10.2305 131.442 10.097 131.553 9.98633C131.67 9.86914 131.81 9.81055 131.973 9.81055H141.152C141.315 9.81055 141.452 9.86914 141.562 9.98633C141.68 10.097 141.738 10.2305 141.738 10.3867V13.4141C141.738 13.5768 141.68 13.7168 141.562 13.834C141.452 13.9447 141.315 14 141.152 14H131.973ZM131.973 4.19531C131.81 4.19531 131.67 4.13997 131.553 4.0293C131.442 3.91211 131.387 3.77214 131.387 3.60938V0.582031C131.387 0.425781 131.442 0.292318 131.553 0.181641C131.67 0.0644531 131.81 0.00585938 131.973 0.00585938H141.152C141.315 0.00585938 141.452 0.0644531 141.562 0.181641C141.68 0.292318 141.738 0.425781 141.738 0.582031V3.60938C141.738 3.77214 141.68 3.91211 141.562 4.0293C141.452 4.13997 141.315 4.19531 141.152 4.19531H131.973ZM131.973 9.10742C131.81 9.10742 131.67 9.05208 131.553 8.94141C131.442 8.82422 131.387 8.6875 131.387 8.53125V5.50391C131.387 5.34115 131.442 5.20443 131.553 5.09375C131.67 4.97656 131.81 4.91797 131.973 4.91797H141.152C141.315 4.91797 141.452 4.97656 141.562 5.09375C141.68 5.20443 141.738 5.34115 141.738 5.50391V8.53125C141.738 8.6875 141.68 8.82422 141.562 8.94141C141.452 9.05208 141.315 9.10742 141.152 9.10742H131.973ZM146.904 13.4141C146.904 13.5768 146.846 13.7168 146.729 13.834C146.618 13.9447 146.481 14 146.318 14H143.301C143.138 14 142.998 13.9447 142.881 13.834C142.77 13.7168 142.715 13.5768 142.715 13.4141V0.611328C142.715 0.448568 142.77 0.311849 142.881 0.201172C142.998 0.0839844 143.138 0.0253906 143.301 0.0253906H149.004C150.371 0.0253906 151.579 0.526693 152.627 1.5293C153.597 2.51888 154.098 3.70703 154.131 5.09375C154.124 6.49349 153.639 7.70443 152.676 8.72656C152.279 9.13021 151.839 9.45573 151.357 9.70312C151.351 9.70964 151.344 9.71615 151.338 9.72266C151.338 9.72917 151.341 9.73568 151.348 9.74219L153.535 13.1016C153.659 13.3099 153.665 13.5117 153.555 13.707C153.451 13.9023 153.281 14 153.047 14H150.088C149.893 14 149.73 13.9121 149.6 13.7363L147.607 10.6895C147.607 10.6829 147.607 10.6732 147.607 10.6602V6.12891C147.607 6.11589 147.611 6.10612 147.617 6.09961C147.624 6.08659 147.633 6.08008 147.646 6.08008H149.004C149.264 6.08008 149.482 5.98893 149.658 5.80664C149.84 5.62435 149.932 5.39648 149.932 5.12305C149.919 4.86263 149.821 4.64779 149.639 4.47852C149.456 4.30273 149.238 4.21484 148.984 4.21484H146.904V5.15234V13.4141Z" fill="#292C27"/>
</svg>
